{
  "accessors": [
    {
      "bufferView": 2,
      "componentType": 5126,
      "count": 28567,
      "max": [
        66.53919982910156,
        29.550899505615234,
        1.7330000400543213
      ],
      "min": [
        -66.53939819335938,
        -24.941600799560547,
        -176.90199279785156
      ],
      "type": "VEC3"
    },
    {
      "bufferView": 2,
      "byteOffset": 342804,
      "componentType": 5126,
      "count": 28567,
      "max": [
        0.9999847412109375,
        0.9999868869781494,
        0.9999996423721313
      ],
      "min": [
        -0.9998417496681213,
        -0.9999328851699829,
        -0.9999585151672363
      ],
      "type": "VEC3"
    },
    {
      "bufferView": 1,
      "componentType": 5126,
      "count": 28567,
      "max": [
        0.9987959861755371,
        0.9976900219917297
      ],
      "min": [
        0.5047199726104736,
        0.5025050044059753
      ],
      "type": "VEC2"
    },
    {
      "bufferView": 0,
      "componentType": 5125,
      "count": 145446,
      "type": "SCALAR"
    },
    {
      "bufferView": 2,
      "byteOffset": 685608,
      "componentType": 5126,
      "count": 481,
      "max": [
        87.17949676513672,
        77.12030029296875,
        10.945899963378906
      ],
      "min": [
        -84.46810150146484,
        -73.77999877929688,
        -2.100339889526367
      ],
      "type": "VEC3"
    },
    {
      "bufferView": 2,
      "byteOffset": 691380,
      "componentType": 5126,
      "count": 481,
      "max": [
        0.5780860781669617,
        0.591080904006958,
        -0.7667909860610962
      ],
      "min": [
        -0.5214142203330994,
        -0.6077078580856323,
        -1.0
      ],
      "type": "VEC3"
    },
    {
      "bufferView": 1,
      "byteOffset": 228536,
      "componentType": 5126,
      "count": 481,
      "max": [
        0.9813439846038818,
        0.9908450245857239
      ],
      "min": [
        0.5160130262374878,
        0.5155550241470337
      ],
      "type": "VEC2"
    },
    {
      "bufferView": 0,
      "byteOffset": 581784,
      "componentType": 5125,
      "count": 2760,
      "type": "SCALAR"
    }
  ],
  "asset": {
    "extras": {
      "author": "Royal3dLTD (https://sketchfab.com/Royal3dLTD)",
      "license": "CC-BY-4.0 (http://creativecommons.org/licenses/by/4.0/)",
      "source": "https://sketchfab.com/3d-models/santa-claus-for-christmas-2022-bc1f086f6a8048d19ff3293a1803bbee",
      "title": "Santa Claus for Christmas 2022"
    },
    "generator": "Sketchfab-12.29.0",
    "version": "2.0"
  },
  "bufferViews": [
    {
      "buffer": 0,
      "byteLength": 592824,
      "name": "floatBufferViews",
      "target": 34963
    },
    {
      "buffer": 0,
      "byteLength": 232384,
      "byteOffset": 592824,
      "byteStride": 8,
      "name": "floatBufferViews",
      "target": 34962
    },
    {
      "buffer": 0,
      "byteLength": 697152,
      "byteOffset": 825208,
      "byteStride": 12,
      "name": "floatBufferViews",
      "target": 34962
    }
  ],
  "buffers": [
    {
      "byteLength": 1522360,
      "uri": "scene.bin"
    }
  ],
  "images": [
    {
      "uri": "textures/Santa_mat_baseColor.jpeg"
    },
    {
      "uri": "textures/Snow_mat_baseColor.jpeg"
    }
  ],
  "materials": [
    {
      "doubleSided": true,
      "name": "Santa_mat",
      "pbrMetallicRoughness": {
        "baseColorTexture": {
          "index": 0
        },
        "metallicFactor": 0.0,
        "roughnessFactor": 0.8434915419926713
      }
    },
    {
      "doubleSided": true,
      "name": "Snow_mat",
      "pbrMetallicRoughness": {
        "baseColorTexture": {
          "index": 1
        },
        "metallicFactor": 0.0,
        "roughnessFactor": 0.8434915419926713
      }
    }
  ],
  "meshes": [
    {
      "name": "Object_0",
      "primitives": [
        {
          "attributes": {
            "NORMAL": 1,
            "POSITION": 0,
            "TEXCOORD_0": 2
          },
          "indices": 3,
          "material": 0,
          "mode": 4
        }
      ]
    },
    {
      "name": "Object_1",
      "primitives": [
        {
          "attributes": {
            "NORMAL": 5,
            "POSITION": 4,
            "TEXCOORD_0": 6
          },
          "indices": 7,
          "material": 1,
          "mode": 4
        }
      ]
    }
  ],
  "nodes": [
    {
      "children": [
        1
      ],
      "matrix": [
        -1.0,
        2.832769343193999e-16,
        6.290011496532519e-32,
        0.0,
        0.0,
        2.220446049250313e-16,
        -1.0,
        0.0,
        -2.832769343193999e-16,
        -1.0,
        -2.220446049250313e-16,
        0.0,
        2.7112960815429688,
        -165.95608520507813,
        -3.6849653374266406e-14,
        1.0
      ],
      "name": "Sketchfab_model"
    },
    {
      "children": [
        2,
        3
      ],
      "name": "model.obj.cleaner.materialmerger.gles"
    },
    {
      "mesh": 0,
      "name": "Object_2"
    },
    {
      "mesh": 1,
      "name": "Object_3"
    }
  ],
  "samplers": [
    {
      "magFilter": 9729,
      "minFilter": 9987,
      "wrapS": 10497,
      "wrapT": 10497
    }
  ],
  "scene": 0,
  "scenes": [
    {
      "name": "Sketchfab_Scene",
      "nodes": [
        0
      ]
    }
  ],
  "textures": [
    {
      "sampler": 0,
      "source": 0
    },
    {
      "sampler": 0,
      "source": 1
    }
  ]
}
